Coordinates
version=1
nRows=29
nColumns=24
inDegrees=yes

Units are S.I. units (second, meters, Newtons, ...)
Angles are in degrees.

endheader
time	pelvis_tilt	pelvis_list	pelvis_rotation	pelvis_tx	pelvis_ty	pelvis_tz	hip_flexion_r	hip_adduction_r	hip_rotation_r	knee_angle_r	ankle_angle_r	subtalar_angle_r	mtp_angle_r	hip_flexion_l	hip_adduction_l	hip_rotation_l	knee_angle_l	ankle_angle_l	subtalar_angle_l	mtp_angle_l	lumbar_extension	lumbar_bending	lumbar_rotation
      7.27000000	      4.32596730	     -1.18006127	      7.59772238	      2.69741565	      1.06565251	     -0.24564908	     -5.13192476	      7.75054937	     -3.71365844	     -4.28287977	      7.70690817	    -16.27090096	      0.00000000	     10.83537407	     -1.09953848	      4.65722733	    -62.96379095	    -13.35446867	    -40.69932466	      0.00000000	    -14.95541902	     -1.52072365	     -7.43799864
      7.28000000	      4.04220174	     -1.08156586	      7.21604116	      2.70677933	      1.06638350	     -0.24552784	     -5.28586925	      7.63368893	     -3.76202291	     -4.47044076	      7.71592417	    -16.10938008	      0.00000000	     12.25968919	     -0.64366307	      4.70934478	    -62.54497869	    -11.56261170	    -40.39824156	      0.00000000	    -14.82548108	     -1.68776079	     -7.08004124
      7.29000000	      3.80509061	     -1.01134480	      6.82143000	      2.71604167	      1.06713489	     -0.24542765	     -5.43813933	      7.54719350	     -3.87303624	     -4.72639212	      7.72534483	    -15.89537971	      0.00000000	     13.57639330	     -0.25757371	      4.72421100	    -61.86366649	     -9.74120512	    -39.66086110	      0.00000000	    -14.76267637	     -1.80719578	     -6.76100296
      7.30000000	      3.62114380	     -0.95808070	      6.41227003	      2.72523525	      1.06791411	     -0.24534259	     -5.61107099	      7.47968506	     -4.04020748	     -5.03039490	      7.73927411	    -15.64853726	      0.00000000	     14.76385095	      0.06239584	      4.69317744	    -60.90820661	     -7.88997937	    -38.53150537	      0.00000000	    -14.77684767	     -1.89441886	     -6.46850693
      7.31000000	      3.49853073	     -0.93053271	      5.99487798	      2.73439140	      1.06873675	     -0.24527289	     -5.83140263	      7.43938718	     -4.29504058	     -5.34779991	      7.70155673	    -15.32970855	      0.00000000	     15.80482995	      0.30015045	      4.61658692	    -59.67420041	     -6.02339113	    -37.03391666	      0.00000000	    -14.87574606	     -1.93970519	     -6.18451363
      7.32000000	      3.40209586	     -0.89587303	      5.56848005	      2.74354900	      1.06955836	     -0.24521786	     -6.07663159	      7.38900552	     -4.55395022	     -5.66911445	      7.70739320	    -15.00873350	      0.00000000	     16.71370130	      0.49565380	      4.49109214	    -58.14189277	     -4.21354093	    -35.33639299	      0.00000000	    -15.01711934	     -1.99000359	     -5.93232932
      7.33000000	      3.33452883	     -0.85542158	      5.14020048	      2.75273483	      1.07038234	     -0.24518360	     -6.36020302	      7.32814699	     -4.83556691	     -5.97481491	      7.69888331	    -14.67177849	      0.00000000	     17.47708807	      0.64613352	      4.31668733	    -56.30381868	     -2.52928682	    -33.52016187	      0.00000000	    -15.20170876	     -2.04334982	     -5.70446648
      7.34000000	      3.28062671	     -0.81269406	      4.71835945	      2.76197831	      1.07118368	     -0.24518331	     -6.67338454	      7.25752696	     -5.13507185	     -6.25177927	      7.67707971	    -14.32473441	      0.00000000	     18.09817410	      0.75632102	      4.10822614	    -54.15286337	     -1.03135129	    -31.70243111	      0.00000000	    -15.40375591	     -2.09793518	     -5.49801127
      7.35000000	      3.22694640	     -0.77207159	      4.31033457	      2.77132221	      1.07193149	     -0.24522071	     -7.00936129	      7.18024833	     -5.44287221	     -6.49282172	      7.63713316	    -13.95716312	      0.00000000	     18.57837222	      0.82883670	      3.87749523	    -51.68140689	      0.22033848	    -29.98699824	      0.00000000	    -15.59397458	     -2.15133292	     -5.31932810
      7.36000000	      3.17383472	     -0.73374134	      3.91473678	      2.78077848	      1.07261502	     -0.24530364	     -7.37326954	      7.09583973	     -5.72706548	     -6.69326218	      7.56798700	    -13.59375382	      0.00000000	     18.90728223	      0.86741136	      3.62678309	    -48.88471631	      1.17254597	    -28.46182167	      0.00000000	    -15.77239802	     -2.19883118	     -5.16183334
      7.37000000	      3.11893379	     -0.71392309	      3.53258445	      2.79036291	      1.07320326	     -0.24542850	     -7.75946561	      7.02119298	     -5.96648450	     -6.86373453	      7.46169001	    -13.24160248	      0.00000000	     19.08323330	      0.85971722	      3.36320049	    -45.76938054	      1.81809949	    -27.15895530	      0.00000000	    -15.93222068	     -2.22626976	     -5.02469580
      7.38000000	      3.04749943	     -0.71514701	      3.16316069	      2.80013574	      1.07365319	     -0.24557854	     -8.17103212	      6.96150919	     -6.13735394	     -6.97650832	      7.33480836	    -12.91164767	      0.00000000	     19.11582848	      0.80198615	      3.07475092	    -42.34337912	      2.15976526	    -26.08878878	      0.00000000	    -16.03582653	     -2.23823053	     -4.90221400
      7.39000000	      2.97131404	     -0.77871009	      2.81831883	      2.81008838	      1.07393621	     -0.24578848	     -8.60342448	      6.95682656	     -6.31690073	     -7.05830586	      7.17937377	    -12.57369943	      0.00000000	     19.00769475	      0.66337510	      2.78726216	    -38.65064336	      2.28989007	    -25.12585543	      0.00000000	    -16.10159358	     -2.17465102	     -4.73085521
      7.40000000	      2.88705609	     -0.89056824	      2.46731612	      2.82025605	      1.07402085	     -0.24600611	     -9.06926019	      6.99479171	     -6.38081047	     -7.09427207	      7.00798529	    -12.25431814	      0.00000000	     18.76342323	      0.44857428	      2.44489683	    -34.71588574	      2.20809986	    -24.26700421	      0.00000000	    -16.12124092	     -2.06569607	     -4.55508669
      7.41000000	      2.80223520	     -1.07212586	      2.10184893	      2.83065377	      1.07388099	     -0.24622463	     -9.57787269	      7.09655456	     -6.32443539	     -7.08319630	      6.81822976	    -11.95932422	      0.00000000	     18.39875190	      0.13940331	      2.02805465	    -30.60492023	      1.97607564	    -23.40325244	      0.00000000	    -16.10238398	     -1.88570739	     -4.34512238
      7.42000000	      2.74377299	     -1.32910084	      1.72854375	      2.84128191	      1.07352284	     -0.24646387	    -10.15443566	      7.26578624	     -6.20813904	     -7.03033341	      6.61451498	    -11.67992051	      0.00000000	     17.91447582	     -0.25669300	      1.53554184	    -26.39563993	      1.66112372	    -22.39372794	      0.00000000	    -16.08269445	     -1.62361540	     -4.06764173
      7.43000000	      2.70440646	     -1.65920339	      1.32962238	      2.85213699	      1.07291924	     -0.24671204	    -10.78817189	      7.49602593	     -5.98134868	     -6.94869056	      6.41177610	    -11.41757280	      0.00000000	     17.35115254	     -0.72927688	      0.94772305	    -22.17830763	      1.27865644	    -21.20323085	      0.00000000	    -16.05751098	     -1.28402600	     -3.73655866
      7.44000000	      2.69687309	     -2.05153182	      0.90786461	      2.86319602	      1.07208662	     -0.24698065	    -11.48171149	      7.77287804	     -5.66458032	     -6.85877903	      6.20667931	    -11.18893796	      0.00000000	     16.73154893	     -1.25146517	      0.29042426	    -18.05247561	      0.84617212	    -19.78973212	      0.00000000	    -16.05254770	     -0.88020064	     -3.34581428
      7.45000000	      2.72218848	     -2.47928487	      0.46151578	      2.87444514	      1.07104476	     -0.24731384	    -12.22895388	      8.06216814	     -5.25616960	     -6.77613639	      6.02442360	    -10.97377780	      0.00000000	     16.06676859	     -1.77661656	     -0.33321684	    -14.08365781	      0.31100085	    -18.29270372	      0.00000000	    -16.07581868	     -0.43095958	     -2.90774099
      7.46000000	      2.75089942	     -2.92618113	     -0.01781408	      2.88587059	      1.06978533	     -0.24770438	    -12.97910809	      8.34053402	     -4.77231414	     -6.73924279	      5.89427308	    -10.71413811	      0.00000000	     15.39407912	     -2.28260443	     -0.74624516	    -10.33748290	     -0.37426895	    -16.96235045	      0.00000000	    -16.09237352	      0.03774084	     -2.40180678
      7.47000000	      2.85208132	     -3.36441115	     -0.44004855	      2.89739401	      1.06842294	     -0.24824986	    -13.78677155	      8.59918701	     -4.30901783	     -6.75793791	      5.76033947	    -10.51362295	      0.00000000	     14.68718388	     -2.74296899	     -0.87860775	     -6.91819823	     -1.13188570	    -15.68622342	      0.00000000	    -16.20940907	      0.51632380	     -1.97131671
      7.48000000	      2.97367879	     -3.76657728	     -0.82537754	      2.90900154	      1.06695525	     -0.24889684	    -14.57818169	      8.80955343	     -3.83910035	     -6.86400242	      5.65507938	    -10.33615103	      0.00000000	     14.00456087	     -3.15449498	     -0.67189574	     -3.86145421	     -1.93697414	    -14.66862066	      0.00000000	    -16.36057551	      0.95681264	     -1.57900821
      7.49000000	      3.15664045	     -4.10365805	     -1.12369549	      2.92066881	      1.06546854	     -0.24972223	    -15.39858419	      8.95883604	     -3.37024900	     -7.03274681	      5.48626459	    -10.30456405	      0.00000000	     13.30450858	     -3.49069435	     -0.01320688	     -1.17447231	     -2.87032906	    -14.18241750	      0.00000000	    -16.59582357	      1.34796789	     -1.31010126
      7.50000000	      3.34506003	     -4.34830425	     -1.39825067	      2.93238149	      1.06398495	     -0.25060409	    -16.14310760	      9.00195536	     -3.00777639	     -7.34836320	      5.46978405	    -10.15331065	      0.00000000	     12.70719492	     -3.74777398	      0.56536892	      1.01268688	     -3.52368802	    -13.68196446	      0.00000000	    -16.84031273	      1.62762189	     -1.02410224
      7.51000000	      3.57239709	     -4.48999800	     -1.55245519	      2.94414192	      1.06255491	     -0.25168848	    -16.85662852	      8.95990162	     -2.79218203	     -7.76925188	      5.41083962	    -10.04330344	      0.00000000	     12.19269065	     -3.87090428	      1.19395003	      2.67899036	     -4.02624232	    -13.43262040	      0.00000000	    -17.13255661	      1.81597485	     -0.90728283
      7.52000000	      3.79978595	     -4.52318826	     -1.62479366	      2.95597593	      1.06116940	     -0.25294276	    -17.48932784	      8.82033664	     -2.73361128	     -8.31454875	      5.35022482	     -9.92582339	      0.00000000	     11.82169811	     -3.83805677	      1.66680160	      3.76721583	     -4.25993770	    -13.29978446	      0.00000000	    -17.41523655	      1.90511815	     -0.89397183
      7.53000000	      4.06661307	     -4.45413458	     -1.61265849	      2.96794495	      1.05987873	     -0.25437023	    -18.09371381	      8.59074197	     -2.85740285	     -8.96906276	      5.28803802	     -9.76801390	      0.00000000	     11.54421809	     -3.63560196	      1.95139941	      4.27446012	     -4.23148547	    -13.26172789	      0.00000000	    -17.71981835	      1.89988269	     -0.96818777
      7.54000000	      4.37652012	     -4.26668922	     -1.55797921	      2.98018890	      1.05867102	     -0.25593623	    -18.67458520	      8.22962142	     -3.27788886	     -9.74834159	      5.28967509	     -9.36696996	      0.00000000	     11.31156359	     -3.24758529	      2.04610613	      4.25591186	     -3.94739122	    -13.38530029	      0.00000000	    -18.01920288	      1.77058197	     -1.07535227
      7.55000000	      4.70065953	     -3.99872826	     -1.43062586	      2.99272787	      1.05747745	     -0.25767332	    -19.21602562	      7.79115496	     -3.93107133	    -10.63212998	      5.26739067	     -8.88545633	      0.00000000	     11.15335716	     -2.71180179	      1.95647047	      3.73500493	     -3.52443350	    -13.53437693	      0.00000000	    -18.28073931	      1.57524937	     -1.25631330
